# Made in Blockbench 5.1.6
mtllib dissection_table.mtl

o cube
v 1.125 0.89375 1.96875
v 1.125 0.89375 -0.96875
v 1.125 0.64375 1.96875
v 1.125 0.64375 -0.96875
v -0.125 0.89375 -0.96875
v -0.125 0.89375 1.96875
v -0.125 0.64375 -0.96875
v -0.125 0.64375 1.96875
vt 0.18359375 0.81640625
vt 0.26171875 0.81640625
vt 0.26171875 0.80078125
vt 0.18359375 0.80078125
vt 0 0.81640625
vt 0.18359375 0.81640625
vt 0.18359375 0.80078125
vt 0 0.80078125
vt 0.44140625 0.81640625
vt 0.51953125 0.81640625
vt 0.51953125 0.80078125
vt 0.44140625 0.80078125
vt 0.26171875 0.81640625
vt 0.4453125 0.81640625
vt 0.4453125 0.80078125
vt 0.26171875 0.80078125
vt 0.2578125 0.81640625
vt 0.1796875 0.81640625
vt 0.1796875 1
vt 0.2578125 1
vt 0.3359375 1
vt 0.2578125 1
vt 0.2578125 0.81640625
vt 0.3359375 0.81640625
vn 0 0 -1
vn 1 0 0
vn 0 0 1
vn -1 0 0
vn 0 1 0
vn 0 -1 0
usemtl m_d5413189-8b70-6d28-a250-b96e469beca1
f 4/4/1 7/3/1 5/2/1 2/1/1
f 3/8/2 4/7/2 2/6/2 1/5/2
f 8/12/3 3/11/3 1/10/3 6/9/3
f 7/16/4 8/15/4 6/14/4 5/13/4
f 6/20/5 1/19/5 2/18/5 5/17/5
f 7/24/6 4/23/6 3/22/6 8/21/6
o cube
v 1.0625 0.6875000000000002 1.90625
v 1.0625 0.6875000000000002 -0.90625
v 1.0625 9.020562075079397e-17 1.90625
v 1.0625 9.020562075079397e-17 -0.90625
v -0.0625 0.6875000000000002 -0.90625
v -0.0625 0.6875000000000002 1.90625
v -0.0625 9.020562075079397e-17 -0.90625
v -0.0625 9.020562075079397e-17 1.90625
vt 0.34375 0.6484375
vt 0.484375 0.6484375
vt 0.484375 0.5625
vt 0.34375 0.5625
vt 0 0.6484375
vt 0.34375 0.6484375
vt 0.34375 0.5625
vt 0 0.5625
vt 0.8359375 0.6484375
vt 0.9765625 0.6484375
vt 0.9765625 0.5625
vt 0.8359375 0.5625
vt 0.484375 0.6484375
vt 0.8359375 0.6484375
vt 0.8359375 0.5625
vt 0.484375 0.5625
vt 0.484375 0.6484375
vt 0.34375 0.6484375
vt 0.34375 1
vt 0.484375 1
vt 0.625 1
vt 0.484375 1
vt 0.484375 0.6484375
vt 0.625 0.6484375
vn 0 0 -1
vn 1 0 0
vn 0 0 1
vn -1 0 0
vn 0 1 0
vn 0 -1 0
usemtl m_b51e2ea8-dad5-3e43-e618-cd84953f0e9a
f 12/28/7 15/27/7 13/26/7 10/25/7
f 11/32/8 12/31/8 10/30/8 9/29/8
f 16/36/9 11/35/9 9/34/9 14/33/9
f 15/40/10 16/39/10 14/38/10 13/37/10
f 14/44/11 9/43/11 10/42/11 13/41/11
f 15/48/12 12/47/12 11/46/12 16/45/12