# Made in Blockbench 4.12.6
mtllib meat_hook.mtl

o cube
v 0.65625 1 0.3125
v 0.65625 1 0.625
v 0.65625 0.9375 0.3125
v 0.65625 0.9375 0.625
v 0.34375 1 0.625
v 0.34375 1 0.3125
v 0.34375 0.9375 0.625
v 0.34375 0.9375 0.3125
vt 0.3125 0.625
vt 0.625 0.625
vt 0.625 0.5625
vt 0.3125 0.5625
vt 0.3125 0.5625
vt 0.625 0.5625
vt 0.625 0.5
vt 0.3125 0.5
vt 0.5 1
vt 0.8125 1
vt 0.8125 0.9375
vt 0.5 0.9375
vt 0.5 0.9375
vt 0.8125 0.9375
vt 0.8125 0.875
vt 0.5 0.875
vt 0.3125 0.6875
vt 0 0.6875
vt 0 1
vt 0.3125 1
vt 0.3125 0.6875
vt 0 0.6875
vt 0 0.375
vt 0.3125 0.375
vn 0 0 1
vn 1 0 0
vn 0 0 -1
vn -1 0 0
vn 0 1 0
vn 0 -1 0
usemtl m_4d257d17-5db8-4d4b-bd7a-1009b4ed489d
f 2/1/1 5/2/1 7/3/1 4/4/1
f 1/5/2 2/6/2 4/7/2 3/8/2
f 6/9/3 1/10/3 3/11/3 8/12/3
f 5/13/4 6/14/4 8/15/4 7/16/4
f 5/17/5 2/18/5 1/19/5 6/20/5
f 8/21/6 3/22/6 4/23/6 7/24/6
o cube
v 0.59375 0.9375 0.375
v 0.59375 0.9375 0.5625
v 0.59375 0.875 0.375
v 0.59375 0.875 0.5625
v 0.40625 0.9375 0.5625
v 0.40625 0.9375 0.375
v 0.40625 0.875 0.5625
v 0.40625 0.875 0.375
vt 0.5 0.875
vt 0.6875 0.875
vt 0.6875 0.8125
vt 0.5 0.8125
vt 0.5 0.8125
vt 0.6875 0.8125
vt 0.6875 0.75
vt 0.5 0.75
vt 0.5 0.75
vt 0.6875 0.75
vt 0.6875 0.6875
vt 0.5 0.6875
vt 0.3125 0.5
vt 0.5 0.5
vt 0.5 0.4375
vt 0.3125 0.4375
vt 0.5 0.8125
vt 0.3125 0.8125
vt 0.3125 1
vt 0.5 1
vt 0.5 0.8125
vt 0.3125 0.8125
vt 0.3125 0.625
vt 0.5 0.625
vn 0 0 1
vn 1 0 0
vn 0 0 -1
vn -1 0 0
vn 0 1 0
vn 0 -1 0
usemtl m_4d257d17-5db8-4d4b-bd7a-1009b4ed489d
f 10/25/7 13/26/7 15/27/7 12/28/7
f 9/29/8 10/30/8 12/31/8 11/32/8
f 14/33/9 9/34/9 11/35/9 16/36/9
f 13/37/10 14/38/10 16/39/10 15/40/10
f 13/41/11 10/42/11 9/43/11 14/44/11
f 16/45/12 11/46/12 12/47/12 15/48/12
o cube
v 0.53125 0.875 0.4375
v 0.53125 0.875 0.5
v 0.53125 0.8125 0.4375
v 0.53125 0.8125 0.5
v 0.46875 0.875 0.5
v 0.46875 0.875 0.4375
v 0.46875 0.8125 0.5
v 0.46875 0.8125 0.4375
vt 0.25 0.3125
vt 0.3125 0.3125
vt 0.3125 0.25
vt 0.25 0.25
vt 0.6875 0.75
vt 0.75 0.75
vt 0.75 0.6875
vt 0.6875 0.6875
vt 0.6875 0.6875
vt 0.75 0.6875
vt 0.75 0.625
vt 0.6875 0.625
vt 0.6875 0.625
vt 0.75 0.625
vt 0.75 0.5625
vt 0.6875 0.5625
vt 0.75 0.5
vt 0.6875 0.5
vt 0.6875 0.5625
vt 0.75 0.5625
vt 0.5625 0.3125
vt 0.5 0.3125
vt 0.5 0.25
vt 0.5625 0.25
vn 0 0 1
vn 1 0 0
vn 0 0 -1
vn -1 0 0
vn 0 1 0
vn 0 -1 0
usemtl m_4d257d17-5db8-4d4b-bd7a-1009b4ed489d
f 18/49/13 21/50/13 23/51/13 20/52/13
f 17/53/14 18/54/14 20/55/14 19/56/14
f 22/57/15 17/58/15 19/59/15 24/60/15
f 21/61/16 22/62/16 24/63/16 23/64/16
f 21/65/17 18/66/17 17/67/17 22/68/17
f 24/69/18 19/70/18 20/71/18 23/72/18
o cube
v 0.53125 0.8125 0.4375
v 0.53125 0.8125 0.5
v 0.53125 0.7625 0.4375
v 0.53125 0.7625 0.5
v 0.46875 0.8125 0.5
v 0.46875 0.8125 0.4375
v 0.46875 0.7625 0.5
v 0.46875 0.7625 0.4375
vt 0.6875 0.5
vt 0.75 0.5
vt 0.75 0.4375
vt 0.6875 0.4375
vt 0.5625 0.3125
vt 0.625 0.3125
vt 0.625 0.25
vt 0.5625 0.25
vt 0.6875 0.4375
vt 0.75 0.4375
vt 0.75 0.375
vt 0.6875 0.375
vt 0.625 0.3125
vt 0.6875 0.3125
vt 0.6875 0.25
vt 0.625 0.25
vt 0.75 0.3125
vt 0.6875 0.3125
vt 0.6875 0.375
vt 0.75 0.375
vt 0.75 0.3125
vt 0.6875 0.3125
vt 0.6875 0.25
vt 0.75 0.25
vn 0 0 1
vn 1 0 0
vn 0 0 -1
vn -1 0 0
vn 0 1 0
vn 0 -1 0
usemtl m_4d257d17-5db8-4d4b-bd7a-1009b4ed489d
f 26/73/19 29/74/19 31/75/19 28/76/19
f 25/77/20 26/78/20 28/79/20 27/80/20
f 30/81/21 25/82/21 27/83/21 32/84/21
f 29/85/22 30/86/22 32/87/22 31/88/22
f 29/89/23 26/90/23 25/91/23 30/92/23
f 32/93/24 27/94/24 28/95/24 31/96/24
o cube
v 0.53125 0.8 0.625
v 0.53125 0.8 0.6875
v 0.53125 0.75 0.625
v 0.53125 0.75 0.6875
v 0.46875 0.8 0.6875
v 0.46875 0.8 0.625
v 0.46875 0.75 0.6875
v 0.46875 0.75 0.625
vt 0.5 0.25
vt 0.5625 0.25
vt 0.5625 0.1875
vt 0.5 0.1875
vt 0.75 0.5
vt 0.8125 0.5
vt 0.8125 0.4375
vt 0.75 0.4375
vt 0.5625 0.25
vt 0.625 0.25
vt 0.625 0.1875
vt 0.5625 0.1875
vt 0.75 0.4375
vt 0.8125 0.4375
vt 0.8125 0.375
vt 0.75 0.375
vt 0.6875 0.1875
vt 0.625 0.1875
vt 0.625 0.25
vt 0.6875 0.25
vt 0.8125 0.375
vt 0.75 0.375
vt 0.75 0.3125
vt 0.8125 0.3125
vn 0 0 1
vn 1 0 0
vn 0 0 -1
vn -1 0 0
vn 0 1 0
vn 0 -1 0
usemtl m_4d257d17-5db8-4d4b-bd7a-1009b4ed489d
f 34/97/25 37/98/25 39/99/25 36/100/25
f 33/101/26 34/102/26 36/103/26 35/104/26
f 38/105/27 33/106/27 35/107/27 40/108/27
f 37/109/28 38/110/28 40/111/28 39/112/28
f 37/113/29 34/114/29 33/115/29 38/116/29
f 40/117/30 35/118/30 36/119/30 39/120/30
o cube
v 0.53125 0.8125 0.5
v 0.53125 0.8125 0.625
v 0.53125 0.75 0.5
v 0.53125 0.75 0.625
v 0.46875 0.8125 0.625
v 0.46875 0.8125 0.5
v 0.46875 0.75 0.625
v 0.46875 0.75 0.5
vt 0.8125 1
vt 0.875 1
vt 0.875 0.9375
vt 0.8125 0.9375
vt 0.0625 0.1875
vt 0.125 0.1875
vt 0.125 0.125
vt 0.0625 0.125
vt 0.8125 0.9375
vt 0.875 0.9375
vt 0.875 0.875
vt 0.8125 0.875
vt 0.125 0.1875
vt 0.25 0.1875
vt 0.25 0.125
vt 0.125 0.125
vt 0.875 0.8125
vt 0.8125 0.8125
vt 0.8125 0.875
vt 0.875 0.875
vt 0.25 0.1875
vt 0.1875 0.1875
vt 0.1875 0.125
vt 0.25 0.125
vn 0 0 1
vn 1 0 0
vn 0 0 -1
vn -1 0 0
vn 0 1 0
vn 0 -1 0
usemtl m_4d257d17-5db8-4d4b-bd7a-1009b4ed489d
f 42/121/31 45/122/31 47/123/31 44/124/31
f 41/125/32 42/126/32 44/127/32 43/128/32
f 46/129/33 41/130/33 43/131/33 48/132/33
f 45/133/34 46/134/34 48/135/34 47/136/34
f 45/137/35 42/138/35 41/139/35 46/140/35
f 48/141/36 43/142/36 44/143/36 47/144/36
o cube
v 0.53125 0.75 0.625
v 0.53125 0.75 0.6875
v 0.53125 0.5625 0.625
v 0.53125 0.5625 0.6875
v 0.46875 0.75 0.6875
v 0.46875 0.75 0.625
v 0.46875 0.5625 0.6875
v 0.46875 0.5625 0.625
vt 0.5 0.5
vt 0.5625 0.5
vt 0.5625 0.3125
vt 0.5 0.3125
vt 0.3125 0.4375
vt 0.375 0.4375
vt 0.375 0.25
vt 0.3125 0.25
vt 0.375 0.4375
vt 0.4375 0.4375
vt 0.4375 0.25
vt 0.375 0.25
vt 0.4375 0.4375
vt 0.5 0.4375
vt 0.5 0.25
vt 0.4375 0.25
vt 0.75 0.1875
vt 0.6875 0.1875
vt 0.6875 0.25
vt 0.75 0.25
vt 0.8125 0.3125
vt 0.75 0.3125
vt 0.75 0.25
vt 0.8125 0.25
vn 0 0 1
vn 1 0 0
vn 0 0 -1
vn -1 0 0
vn 0 1 0
vn 0 -1 0
usemtl m_4d257d17-5db8-4d4b-bd7a-1009b4ed489d
f 50/145/37 53/146/37 55/147/37 52/148/37
f 49/149/38 50/150/38 52/151/38 51/152/38
f 54/153/39 49/154/39 51/155/39 56/156/39
f 53/157/40 54/158/40 56/159/40 55/160/40
f 53/161/41 50/162/41 49/163/41 54/164/41
f 56/165/42 51/166/42 52/167/42 55/168/42
o cube
v 0.53125 0.5625 0.625
v 0.53125 0.5625 0.6875
v 0.53125 0.5125 0.625
v 0.53125 0.5125 0.6875
v 0.46875 0.5625 0.6875
v 0.46875 0.5625 0.625
v 0.46875 0.5125 0.6875
v 0.46875 0.5125 0.625
vt 0 0.25
vt 0.0625 0.25
vt 0.0625 0.1875
vt 0 0.1875
vt 0.0625 0.25
vt 0.125 0.25
vt 0.125 0.1875
vt 0.0625 0.1875
vt 0.125 0.25
vt 0.1875 0.25
vt 0.1875 0.1875
vt 0.125 0.1875
vt 0.75 0.875
vt 0.8125 0.875
vt 0.8125 0.8125
vt 0.75 0.8125
vt 0.25 0.1875
vt 0.1875 0.1875
vt 0.1875 0.25
vt 0.25 0.25
vt 0.8125 0.8125
vt 0.75 0.8125
vt 0.75 0.75
vt 0.8125 0.75
vn 0 0 1
vn 1 0 0
vn 0 0 -1
vn -1 0 0
vn 0 1 0
vn 0 -1 0
usemtl m_4d257d17-5db8-4d4b-bd7a-1009b4ed489d
f 58/169/43 61/170/43 63/171/43 60/172/43
f 57/173/44 58/174/44 60/175/44 59/176/44
f 62/177/45 57/178/45 59/179/45 64/180/45
f 61/181/46 62/182/46 64/183/46 63/184/46
f 61/185/47 58/186/47 57/187/47 62/188/47
f 64/189/48 59/190/48 60/191/48 63/192/48
o cube
v 0.53125 0.5625 0.5
v 0.53125 0.5625 0.625
v 0.53125 0.5 0.5
v 0.53125 0.5 0.625
v 0.46875 0.5625 0.625
v 0.46875 0.5625 0.5
v 0.46875 0.5 0.625
v 0.46875 0.5 0.5
vt 0.25 0.25
vt 0.3125 0.25
vt 0.3125 0.1875
vt 0.25 0.1875
vt 0.5 0.6875
vt 0.625 0.6875
vt 0.625 0.625
vt 0.5 0.625
vt 0.75 0.75
vt 0.8125 0.75
vt 0.8125 0.6875
vt 0.75 0.6875
vt 0.5625 0.5
vt 0.6875 0.5
vt 0.6875 0.4375
vt 0.5625 0.4375
vt 0.625 0.3125
vt 0.5625 0.3125
vt 0.5625 0.4375
vt 0.625 0.4375
vt 0.0625 0.375
vt 0 0.375
vt 0 0.25
vt 0.0625 0.25
vn 0 0 1
vn 1 0 0
vn 0 0 -1
vn -1 0 0
vn 0 1 0
vn 0 -1 0
usemtl m_4d257d17-5db8-4d4b-bd7a-1009b4ed489d
f 66/193/49 69/194/49 71/195/49 68/196/49
f 65/197/50 66/198/50 68/199/50 67/200/50
f 70/201/51 65/202/51 67/203/51 72/204/51
f 69/205/52 70/206/52 72/207/52 71/208/52
f 69/209/53 66/210/53 65/211/53 70/212/53
f 72/213/54 67/214/54 68/215/54 71/216/54
o cube
v 0.53125 0.5625 0.44375
v 0.53125 0.5625 0.5
v 0.53125 0.5125 0.44375
v 0.53125 0.5125 0.5
v 0.46875 0.5625 0.5
v 0.46875 0.5625 0.44375
v 0.46875 0.5125 0.5
v 0.46875 0.5125 0.44375
vt 0.3125 0.25
vt 0.375 0.25
vt 0.375 0.1875
vt 0.3125 0.1875
vt 0.75 0.6875
vt 0.8125 0.6875
vt 0.8125 0.625
vt 0.75 0.625
vt 0.375 0.25
vt 0.4375 0.25
vt 0.4375 0.1875
vt 0.375 0.1875
vt 0.75 0.625
vt 0.8125 0.625
vt 0.8125 0.5625
vt 0.75 0.5625
vt 0.5 0.1875
vt 0.4375 0.1875
vt 0.4375 0.25
vt 0.5 0.25
vt 0.8125 0.5625
vt 0.75 0.5625
vt 0.75 0.5
vt 0.8125 0.5
vn 0 0 1
vn 1 0 0
vn 0 0 -1
vn -1 0 0
vn 0 1 0
vn 0 -1 0
usemtl m_4d257d17-5db8-4d4b-bd7a-1009b4ed489d
f 74/217/55 77/218/55 79/219/55 76/220/55
f 73/221/56 74/222/56 76/223/56 75/224/56
f 78/225/57 73/226/57 75/227/57 80/228/57
f 77/229/58 78/230/58 80/231/58 79/232/58
f 77/233/59 74/234/59 73/235/59 78/236/59
f 80/237/60 75/238/60 76/239/60 79/240/60
o cube
v 0.53125 0.6125 0.44375
v 0.53125 0.6125 0.475
v 0.53125 0.5625 0.44375
v 0.53125 0.5625 0.475
v 0.46875 0.6125 0.475
v 0.46875 0.6125 0.44375
v 0.46875 0.5625 0.475
v 0.46875 0.5625 0.44375
vt 0.625 0.5625
vt 0.6875 0.5625
vt 0.6875 0.5
vt 0.625 0.5
vt 0.0625 0.3125
vt 0.125 0.3125
vt 0.125 0.25
vt 0.0625 0.25
vt 0.125 0.3125
vt 0.1875 0.3125
vt 0.1875 0.25
vt 0.125 0.25
vt 0.6875 0.875
vt 0.75 0.875
vt 0.75 0.8125
vt 0.6875 0.8125
vt 0.25 0.25
vt 0.1875 0.25
vt 0.1875 0.3125
vt 0.25 0.3125
vt 0.75 0.8125
vt 0.6875 0.8125
vt 0.6875 0.75
vt 0.75 0.75
vn 0 0 1
vn 1 0 0
vn 0 0 -1
vn -1 0 0
vn 0 1 0
vn 0 -1 0
usemtl m_4d257d17-5db8-4d4b-bd7a-1009b4ed489d
f 82/241/61 85/242/61 87/243/61 84/244/61
f 81/245/62 82/246/62 84/247/62 83/248/62
f 86/249/63 81/250/63 83/251/63 88/252/63
f 85/253/64 86/254/64 88/255/64 87/256/64
f 85/257/65 82/258/65 81/259/65 86/260/65
f 88/261/66 83/262/66 84/263/66 87/264/66